# Blender 4.0.2
# www.blender.org
o Plane
v -1.125000 0.100000 0.000000
v 0.000000 0.100000 1.125000
v -1.113457 0.100000 0.864647
v -0.923395 0.100000 1.107864
v -1.125000 0.100000 0.646578
v -0.709283 0.100000 1.125000
v -1.043033 0.100000 1.010298
v 1.125000 0.100000 0.000000
v 1.113457 0.100000 0.864647
v 0.923395 0.100000 1.107864
v 1.125000 0.100000 0.646578
v 0.709283 0.100000 1.125000
v 1.043033 0.100000 1.010298
v 0.000000 0.100000 -1.125000
v -1.113457 0.100000 -0.864647
v -0.923395 0.100000 -1.107864
v -1.125000 0.100000 -0.646578
v -0.709283 0.100000 -1.125000
v -1.043033 0.100000 -1.010298
v 1.113457 0.100000 -0.864647
v 0.923395 0.100000 -1.107864
v 1.125000 0.100000 -0.646578
v 0.709283 0.100000 -1.125000
v 1.043033 0.100000 -1.010298
v -0.400644 0.100000 1.125000
v -1.123534 0.100000 0.791534
v -1.086882 0.100000 0.937182
v -1.125000 0.100000 0.363325
v -0.858656 0.100000 1.122824
v -0.983860 0.100000 1.069297
v 0.400644 0.100000 1.125000
v 1.123534 0.100000 0.791534
v 1.086882 0.100000 0.937182
v 1.125000 0.100000 0.363325
v 0.858656 0.100000 1.122824
v 0.983860 0.100000 1.069297
v -0.400644 0.100000 -1.125000
v -1.123534 0.100000 -0.791534
v -1.086882 0.100000 -0.937182
v -1.125000 0.100000 -0.363325
v -0.858656 0.100000 -1.122824
v -0.983860 0.100000 -1.069297
v 0.400644 0.100000 -1.125000
v 1.123534 0.100000 -0.791534
v 1.086882 0.100000 -0.937182
v 1.125000 0.100000 -0.363325
v 0.858656 0.100000 -1.122824
v 0.983860 0.100000 -1.069297
v -1.125000 0.000000 0.000000
v 0.000000 0.000000 1.125000
v -1.113457 0.000000 0.864647
v -0.923395 0.000000 1.107864
v -1.125000 0.000000 0.646578
v -0.709283 0.000000 1.125000
v -1.043033 0.000000 1.010298
v 1.125000 0.000000 0.000000
v 1.113457 0.000000 0.864647
v 0.923395 0.000000 1.107864
v 1.125000 0.000000 0.646578
v 0.709283 0.000000 1.125000
v 1.043033 0.000000 1.010298
v 0.000000 0.000000 -1.125000
v -1.113457 0.000000 -0.864647
v -0.923395 0.000000 -1.107864
v -1.125000 0.000000 -0.646578
v -0.709283 0.000000 -1.125000
v -1.043033 0.000000 -1.010298
v 1.113457 0.000000 -0.864647
v 0.923395 0.000000 -1.107864
v 1.125000 0.000000 -0.646578
v 0.709283 0.000000 -1.125000
v 1.043033 0.000000 -1.010298
v -0.400644 0.000000 1.125000
v -1.123534 0.000000 0.791534
v -1.086882 0.000000 0.937182
v -1.125000 0.000000 0.363325
v -0.858656 0.000000 1.122824
v -0.983860 0.000000 1.069297
v 0.400644 0.000000 1.125000
v 1.123534 0.000000 0.791534
v 1.086882 0.000000 0.937182
v 1.125000 0.000000 0.363325
v 0.858656 0.000000 1.122824
v 0.983860 0.000000 1.069297
v -0.400644 0.000000 -1.125000
v -1.123534 0.000000 -0.791534
v -1.086882 0.000000 -0.937182
v -1.125000 0.000000 -0.363325
v -0.858656 0.000000 -1.122824
v -0.983860 0.000000 -1.069297
v 0.400644 0.000000 -1.125000
v 1.123534 0.000000 -0.791534
v 1.086882 0.000000 -0.937182
v 1.125000 0.000000 -0.363325
v 0.858656 0.000000 -1.122824
v 0.983860 0.000000 -1.069297
vn -0.0000 1.0000 -0.0000
vn -0.0000 -1.0000 -0.0000
vn -0.0000 -0.0000 1.0000
vn 0.9023 -0.0000 -0.4311
vn 0.7878 -0.0000 -0.6159
vn -0.0073 -0.0000 1.0000
vn -0.9704 -0.0000 -0.2417
vn -0.9973 -0.0000 -0.0735
vn 0.9973 -0.0000 0.0735
vn 1.0000 -0.0000 0.0051
vn 0.9704 -0.0000 -0.2417
vn -0.7878 -0.0000 -0.6159
vn -0.9023 -0.0000 -0.4311
vn 0.9704 -0.0000 0.2417
vn 1.0000 -0.0000 -0.0000
vn -1.0000 -0.0000 0.0051
vn -0.9973 -0.0000 0.0735
vn 0.7878 -0.0000 0.6159
vn 0.9023 -0.0000 0.4311
vn 1.0000 -0.0000 -0.0051
vn -0.9704 -0.0000 0.2417
vn -1.0000 -0.0000 -0.0000
vn 0.3871 -0.0000 -0.9221
vn 0.1205 -0.0000 -0.9927
vn -0.9023 -0.0000 0.4311
vn -0.7878 -0.0000 0.6159
vn -1.0000 -0.0000 -0.0051
vn 0.0073 -0.0000 -1.0000
vn -0.1205 -0.0000 -0.9927
vn -0.3871 -0.0000 -0.9221
vn 0.6256 -0.0000 -0.7802
vn -0.0073 -0.0000 -1.0000
vn 0.1205 -0.0000 0.9927
vn 0.3871 -0.0000 0.9221
vn -0.6256 -0.0000 -0.7802
vn 0.0073 -0.0000 1.0000
vn -0.3871 -0.0000 0.9221
vn -0.1205 -0.0000 0.9927
vn 0.6256 -0.0000 0.7802
vn -0.0000 -0.0000 -1.0000
vn -0.6256 -0.0000 0.7802
vn 0.9973 -0.0000 -0.0735
vt 0.875976 0.004083
vt 0.673758 0.000311
vt 0.810038 0.002077
vt 0.496841 0.000100
vt 0.319934 0.001329
vt 0.183659 0.003032
vt 0.117702 0.004083
vt 0.904562 0.010689
vt 0.089118 0.010689
vt 0.931259 0.027718
vt 0.062420 0.027718
vt 0.036292 0.053769
vt 0.957387 0.053769
vt 0.976749 0.086053
vt 0.016931 0.086053
vt 0.988483 0.118081
vt 0.005196 0.118081
vt 0.992932 0.150363
vt 0.000747 0.150363
vt 0.993580 0.214368
vt 0.000100 0.214368
vt 0.993580 0.339438
vt 0.000100 0.339438
vt 0.993580 0.499862
vt 0.000100 0.499862
vt 0.993580 0.660287
vt 0.000100 0.660287
vt 0.993580 0.785357
vt 0.000100 0.785357
vt 0.992932 0.849362
vt 0.000747 0.849362
vt 0.988483 0.881644
vt 0.005196 0.881644
vt 0.976749 0.913672
vt 0.016931 0.913672
vt 0.957387 0.945956
vt 0.036292 0.945956
vt 0.931260 0.972007
vt 0.062420 0.972007
vt 0.089118 0.989036
vt 0.904562 0.989036
vt 0.875977 0.995641
vt 0.117703 0.995641
vt 0.810021 0.996693
vt 0.183656 0.996783
vt 0.673751 0.998573
vt 0.496841 0.999900
vt 0.319923 0.999483
vt 0.000000 0.000000
s 1
f 35/1/1 31/2/1 12/3/1
f 35/1/1 2/4/1 31/2/1
f 35/1/1 25/5/1 2/4/1
f 35/1/1 6/6/1 25/5/1
f 35/1/1 29/7/1 6/6/1
f 10/8/1 29/7/1 35/1/1
f 10/8/1 4/9/1 29/7/1
f 36/10/1 4/9/1 10/8/1
f 36/10/1 30/11/1 4/9/1
f 36/10/1 7/12/1 30/11/1
f 13/13/1 7/12/1 36/10/1
f 33/14/1 7/12/1 13/13/1
f 33/14/1 27/15/1 7/12/1
f 9/16/1 27/15/1 33/14/1
f 9/16/1 3/17/1 27/15/1
f 32/18/1 3/17/1 9/16/1
f 32/18/1 26/19/1 3/17/1
f 11/20/1 26/19/1 32/18/1
f 11/20/1 5/21/1 26/19/1
f 34/22/1 5/21/1 11/20/1
f 34/22/1 28/23/1 5/21/1
f 8/24/1 28/23/1 34/22/1
f 8/24/1 1/25/1 28/23/1
f 46/26/1 1/25/1 8/24/1
f 46/26/1 40/27/1 1/25/1
f 22/28/1 40/27/1 46/26/1
f 22/28/1 17/29/1 40/27/1
f 44/30/1 17/29/1 22/28/1
f 44/30/1 38/31/1 17/29/1
f 20/32/1 38/31/1 44/30/1
f 20/32/1 15/33/1 38/31/1
f 45/34/1 15/33/1 20/32/1
f 45/34/1 39/35/1 15/33/1
f 24/36/1 39/35/1 45/34/1
f 24/36/1 19/37/1 39/35/1
f 48/38/1 19/37/1 24/36/1
f 48/38/1 42/39/1 19/37/1
f 48/38/1 16/40/1 42/39/1
f 21/41/1 16/40/1 48/38/1
f 47/42/1 16/40/1 21/41/1
f 47/42/1 41/43/1 16/40/1
f 23/44/1 41/43/1 47/42/1
f 23/44/1 18/45/1 41/43/1
f 43/46/1 18/45/1 23/44/1
f 14/47/1 18/45/1 43/46/1
f 37/48/2 18/45/2 14/47/2
f 83/49/2 60/49/2 79/49/2
f 83/49/2 79/49/2 50/49/2
f 83/49/2 50/49/2 73/49/2
f 83/49/2 73/49/2 54/49/2
f 83/49/2 54/49/2 77/49/2
f 58/49/2 83/49/2 77/49/2
f 58/49/2 77/49/2 52/49/2
f 84/49/2 58/49/2 52/49/2
f 84/49/2 52/49/2 78/49/2
f 84/49/2 78/49/2 55/49/2
f 61/49/2 84/49/2 55/49/2
f 81/49/2 61/49/2 55/49/2
f 81/49/2 55/49/2 75/49/2
f 57/49/2 81/49/2 75/49/2
f 57/49/2 75/49/2 51/49/2
f 80/49/2 57/49/2 51/49/2
f 80/49/2 51/49/2 74/49/2
f 59/49/2 80/49/2 74/49/2
f 59/49/2 74/49/2 53/49/2
f 82/49/2 59/49/2 53/49/2
f 82/49/2 53/49/2 76/49/2
f 56/49/2 82/49/2 76/49/2
f 56/49/2 76/49/2 49/49/2
f 94/49/2 56/49/2 49/49/2
f 94/49/2 49/49/2 88/49/2
f 70/49/2 94/49/2 88/49/2
f 70/49/2 88/49/2 65/49/2
f 92/49/2 70/49/2 65/49/2
f 92/49/2 65/49/2 86/49/2
f 68/49/2 92/49/2 86/49/2
f 68/49/2 86/49/2 63/49/2
f 93/49/2 68/49/2 63/49/2
f 93/49/2 63/49/2 87/49/2
f 72/49/2 93/49/2 87/49/2
f 72/49/2 87/49/2 67/49/2
f 96/49/2 72/49/2 67/49/2
f 96/49/2 67/49/2 90/49/2
f 96/49/2 90/49/2 64/49/2
f 69/49/2 96/49/2 64/49/2
f 95/49/2 69/49/2 64/49/2
f 95/49/2 64/49/2 89/49/2
f 71/49/2 95/49/2 89/49/2
f 71/49/2 89/49/2 66/49/2
f 91/49/1 71/49/1 66/49/1
f 62/49/1 91/49/1 66/49/1
f 85/49/1 62/49/1 66/49/1
f 2/49/3 79/49/3 31/49/3
f 45/49/4 72/49/5 24/49/5
f 6/49/6 73/49/3 25/49/3
f 15/49/7 86/49/8 38/49/8
f 32/49/9 59/49/10 11/49/10
f 20/49/11 93/49/4 45/49/4
f 25/49/3 50/49/3 2/49/3
f 19/49/12 87/49/13 39/49/13
f 9/49/14 80/49/9 32/49/9
f 8/49/15 94/49/15 46/49/15
f 5/49/16 74/49/17 26/49/17
f 39/49/13 63/49/7 15/49/7
f 13/49/18 81/49/19 33/49/19
f 46/49/15 70/49/20 22/49/20
f 26/49/17 51/49/21 3/49/21
f 40/49/22 49/49/22 1/49/22
f 33/49/19 57/49/14 9/49/14
f 21/49/23 95/49/24 47/49/24
f 27/49/25 55/49/26 7/49/26
f 17/49/27 88/49/22 40/49/22
f 34/49/15 56/49/15 8/49/15
f 47/49/24 71/49/28 23/49/28
f 3/49/21 75/49/25 27/49/25
f 41/49/29 64/49/30 16/49/30
f 11/49/10 82/49/15 34/49/15
f 48/49/31 69/49/23 21/49/23
f 1/49/22 76/49/22 28/49/22
f 18/49/32 89/49/29 41/49/29
f 35/49/33 58/49/34 10/49/34
f 24/49/5 96/49/31 48/49/31
f 28/49/22 53/49/16 5/49/16
f 16/49/30 90/49/35 42/49/35
f 12/49/36 83/49/33 35/49/33
f 4/49/37 77/49/38 29/49/38
f 42/49/35 67/49/12 19/49/12
f 10/49/34 84/49/39 36/49/39
f 29/49/38 54/49/6 6/49/6
f 23/49/28 91/49/40 43/49/40
f 36/49/39 61/49/18 13/49/18
f 30/49/41 52/49/37 4/49/37
f 43/49/40 62/49/40 14/49/40
f 37/49/40 66/49/32 18/49/32
f 7/49/26 78/49/41 30/49/41
f 22/49/20 92/49/42 44/49/42
f 14/49/40 85/49/40 37/49/40
f 31/49/3 60/49/36 12/49/36
f 44/49/42 68/49/11 20/49/11
f 38/49/8 65/49/27 17/49/27
f 2/49/3 50/49/3 79/49/3
f 45/49/4 93/49/4 72/49/5
f 6/49/6 54/49/6 73/49/3
f 15/49/7 63/49/7 86/49/8
f 32/49/9 80/49/9 59/49/10
f 20/49/11 68/49/11 93/49/4
f 25/49/3 73/49/3 50/49/3
f 19/49/12 67/49/12 87/49/13
f 9/49/14 57/49/14 80/49/9
f 8/49/15 56/49/15 94/49/15
f 5/49/16 53/49/16 74/49/17
f 39/49/13 87/49/13 63/49/7
f 13/49/18 61/49/18 81/49/19
f 46/49/15 94/49/15 70/49/20
f 26/49/17 74/49/17 51/49/21
f 40/49/22 88/49/22 49/49/22
f 33/49/19 81/49/19 57/49/14
f 21/49/23 69/49/23 95/49/24
f 27/49/25 75/49/25 55/49/26
f 17/49/27 65/49/27 88/49/22
f 34/49/15 82/49/15 56/49/15
f 47/49/24 95/49/24 71/49/28
f 3/49/21 51/49/21 75/49/25
f 41/49/29 89/49/29 64/49/30
f 11/49/10 59/49/10 82/49/15
f 48/49/31 96/49/31 69/49/23
f 1/49/22 49/49/22 76/49/22
f 18/49/32 66/49/32 89/49/29
f 35/49/33 83/49/33 58/49/34
f 24/49/5 72/49/5 96/49/31
f 28/49/22 76/49/22 53/49/16
f 16/49/30 64/49/30 90/49/35
f 12/49/36 60/49/36 83/49/33
f 4/49/37 52/49/37 77/49/38
f 42/49/35 90/49/35 67/49/12
f 10/49/34 58/49/34 84/49/39
f 29/49/38 77/49/38 54/49/6
f 23/49/28 71/49/28 91/49/40
f 36/49/39 84/49/39 61/49/18
f 30/49/41 78/49/41 52/49/37
f 43/49/40 91/49/40 62/49/40
f 37/49/40 85/49/40 66/49/32
f 7/49/26 55/49/26 78/49/41
f 22/49/20 70/49/20 92/49/42
f 14/49/40 62/49/40 85/49/40
f 31/49/3 79/49/3 60/49/36
f 44/49/42 92/49/42 68/49/11
f 38/49/8 86/49/8 65/49/27
