# Blender 4.0.2
# www.blender.org
o Cylinder.002
v -0.000000 -0.030000 0.000000
v -0.000000 0.030000 -0.000000
v -0.000000 -0.029523 -0.094031
v -0.000000 0.027804 -0.094031
v 0.066490 -0.029523 -0.066490
v 0.066490 0.027804 -0.066490
v 0.094031 -0.029523 0.000000
v 0.094031 0.027804 -0.000000
v 0.066490 -0.029523 0.066490
v 0.066490 0.027804 0.066490
v -0.000000 -0.029523 0.094031
v -0.000000 0.027804 0.094031
v -0.066490 -0.029523 0.066490
v -0.066490 0.027804 0.066490
v -0.094031 -0.029523 0.000000
v -0.094031 0.027804 -0.000000
v -0.066490 -0.029523 -0.066490
v -0.066490 0.027804 -0.066490
v -0.000000 -0.020286 -0.108284
v 0.076568 -0.020286 -0.076568
v 0.108284 -0.020286 0.000000
v 0.076568 -0.020286 0.076568
v -0.000000 -0.020286 0.108284
v -0.076568 -0.020286 0.076568
v -0.108284 -0.020286 0.000000
v -0.076568 -0.020286 -0.076568
v -0.000000 0.011695 -0.108284
v 0.076568 0.011695 -0.076568
v 0.108284 0.011695 -0.000000
v 0.076568 0.011695 0.076568
v -0.000000 0.011695 0.108284
v -0.076568 0.011695 0.076568
v -0.108284 0.011695 -0.000000
v -0.076568 0.011695 -0.076568
v 0.044171 -0.029940 -0.044171
v -0.000000 -0.029940 -0.062467
v 0.036400 -0.029523 -0.087875
v -0.000000 0.029726 -0.062467
v 0.044171 0.029726 -0.044171
v 0.036400 0.027804 -0.087875
v -0.000000 0.022497 -0.106502
v 0.075308 -0.027652 -0.075308
v 0.062467 -0.029940 0.000000
v 0.087875 -0.029523 -0.036400
v 0.062467 0.029726 -0.000000
v 0.087875 0.027804 -0.036400
v 0.106502 -0.027652 0.000000
v 0.044171 -0.029940 0.044171
v 0.087875 -0.029523 0.036400
v 0.044171 0.029726 0.044171
v 0.087875 0.027804 0.036400
v 0.075308 -0.027652 0.075308
v -0.000000 -0.029940 0.062467
v 0.036400 -0.029523 0.087875
v -0.000000 0.029726 0.062467
v 0.036400 0.027804 0.087875
v -0.000000 -0.027652 0.106502
v -0.044171 -0.029940 0.044171
v -0.036400 -0.029523 0.087875
v -0.044171 0.029726 0.044171
v -0.036400 0.027804 0.087875
v -0.075308 -0.027652 0.075308
v -0.062467 -0.029940 0.000000
v -0.087875 -0.029523 0.036400
v -0.062467 0.029726 -0.000000
v -0.087875 0.027804 0.036400
v -0.106502 -0.027652 0.000000
v -0.044171 -0.029940 -0.044171
v -0.087875 -0.029523 -0.036400
v -0.044171 0.029726 -0.044171
v -0.087875 0.027804 -0.036400
v -0.075308 -0.027652 -0.075308
v -0.036400 -0.029523 -0.087875
v -0.036400 0.027804 -0.087875
v -0.000000 -0.027652 -0.106502
v 0.076568 -0.004940 -0.076568
v 0.108284 -0.004940 0.000000
v 0.076568 -0.004940 0.076568
v -0.000000 -0.004940 0.108284
v -0.076568 -0.004940 0.076568
v -0.108284 -0.004940 0.000000
v -0.076568 -0.004940 -0.076568
v -0.041390 -0.020286 -0.099926
v -0.099926 -0.020286 -0.041390
v -0.099926 -0.020286 0.041390
v -0.041390 -0.020286 0.099926
v 0.041390 -0.020286 0.099926
v 0.099926 -0.020286 0.041390
v 0.099926 -0.020286 -0.041390
v 0.041390 -0.020286 -0.099926
v -0.000000 -0.004940 -0.108284
v 0.075308 0.022497 -0.075308
v 0.106502 0.022497 -0.000000
v 0.075308 0.022497 0.075308
v -0.000000 0.022497 0.106502
v -0.075308 0.022497 0.075308
v -0.106502 0.022497 -0.000000
v -0.075308 0.022497 -0.075308
v -0.041390 0.011695 -0.099926
v -0.099926 0.011695 -0.041390
v -0.099926 0.011695 0.041390
v -0.041390 0.011695 0.099926
v 0.041390 0.011695 0.099926
v 0.099926 0.011695 0.041390
v 0.099926 0.011695 -0.041390
v 0.041390 0.011695 -0.099926
v 0.027577 -0.029911 -0.066578
v 0.027577 0.029588 -0.066578
v 0.040766 0.022497 -0.098420
v 0.066578 -0.029911 -0.027577
v 0.066578 0.029588 -0.027577
v 0.098420 0.022497 -0.040766
v 0.066578 -0.029911 0.027577
v 0.066578 0.029588 0.027577
v 0.098420 0.022497 0.040766
v 0.027577 -0.029911 0.066578
v 0.027577 0.029588 0.066578
v 0.040766 0.022497 0.098420
v -0.027577 -0.029911 0.066578
v -0.027577 0.029588 0.066578
v -0.040766 0.022497 0.098420
v -0.066578 -0.029911 0.027577
v -0.066578 0.029588 0.027577
v -0.098420 0.022497 0.040766
v -0.066578 -0.029911 -0.027577
v -0.066578 0.029588 -0.027577
v -0.098420 0.022497 -0.040766
v -0.027577 -0.029910 -0.066578
v -0.027577 0.029588 -0.066578
v -0.040766 0.022497 -0.098420
v -0.040766 -0.027652 -0.098420
v -0.098420 -0.027652 -0.040766
v -0.098420 -0.027652 0.040766
v -0.040766 -0.027652 0.098420
v 0.040766 -0.027652 0.098420
v 0.098420 -0.027652 0.040766
v 0.098420 -0.027652 -0.040766
v 0.040766 -0.027652 -0.098420
v -0.041390 -0.004940 -0.099926
v -0.099926 -0.004940 -0.041390
v -0.099926 -0.004940 0.041390
v -0.041390 -0.004940 0.099926
v 0.041390 -0.004940 0.099926
v 0.099926 -0.004940 0.041390
v 0.099926 -0.004940 -0.041390
v 0.041390 -0.004940 -0.099926
vn -0.0000 -1.0000 -0.0067
vn 0.0047 -1.0000 -0.0047
vn -0.0000 -1.0000 -0.0000
vn -0.0000 -0.9960 -0.0889
vn 0.0040 -0.9999 -0.0097
vn 0.0629 -0.9960 -0.0629
vn 0.0376 -0.9951 -0.0909
vn 0.0217 0.9995 -0.0217
vn -0.0000 0.9995 -0.0307
vn -0.0000 1.0000 -0.0000
vn 0.1766 0.9683 -0.1766
vn 0.0185 0.9988 -0.0447
vn -0.0000 0.9683 -0.2498
vn 0.1046 0.9619 -0.2525
vn -0.0000 0.5869 -0.8096
vn 0.3816 0.0752 -0.9213
vn -0.0000 0.0808 -0.9967
vn 0.3138 0.5725 -0.7575
vn 0.5725 0.5869 -0.5725
vn 0.7048 0.0808 -0.7048
vn 0.0067 -1.0000 -0.0000
vn 0.0097 -0.9999 -0.0040
vn 0.0889 -0.9960 -0.0000
vn 0.0909 -0.9951 -0.0376
vn 0.0307 0.9995 -0.0000
vn 0.2498 0.9683 -0.0000
vn 0.0447 0.9988 -0.0185
vn 0.2525 0.9619 -0.1046
vn 0.9213 0.0752 -0.3816
vn 0.7575 0.5725 -0.3138
vn 0.8096 0.5869 -0.0000
vn 0.9967 0.0808 -0.0000
vn 0.0047 -1.0000 0.0047
vn 0.0097 -0.9999 0.0040
vn 0.0629 -0.9960 0.0629
vn 0.0909 -0.9951 0.0376
vn 0.0217 0.9995 0.0217
vn 0.1766 0.9683 0.1766
vn 0.0447 0.9988 0.0185
vn 0.2525 0.9619 0.1046
vn 0.9213 0.0752 0.3816
vn 0.7575 0.5725 0.3138
vn 0.5725 0.5869 0.5725
vn 0.7048 0.0808 0.7048
vn -0.0000 -1.0000 0.0067
vn 0.0040 -0.9999 0.0097
vn -0.0000 -0.9960 0.0889
vn 0.0376 -0.9951 0.0909
vn -0.0000 0.9995 0.0307
vn -0.0000 0.9683 0.2498
vn 0.0185 0.9988 0.0447
vn 0.1046 0.9619 0.2525
vn 0.3816 0.0752 0.9213
vn 0.3138 0.5725 0.7575
vn -0.0000 0.5870 0.8096
vn -0.0000 0.0808 0.9967
vn -0.0047 -1.0000 0.0047
vn -0.0040 -0.9999 0.0097
vn -0.0629 -0.9960 0.0629
vn -0.0376 -0.9951 0.0909
vn -0.0217 0.9995 0.0217
vn -0.1766 0.9683 0.1766
vn -0.0185 0.9988 0.0447
vn -0.1046 0.9619 0.2525
vn -0.3816 0.0752 0.9213
vn -0.3138 0.5725 0.7575
vn -0.5725 0.5869 0.5725
vn -0.7048 0.0808 0.7048
vn -0.0067 -1.0000 -0.0000
vn -0.0097 -0.9999 0.0040
vn -0.0889 -0.9960 -0.0000
vn -0.0909 -0.9951 0.0376
vn -0.0307 0.9995 -0.0000
vn -0.2498 0.9683 -0.0000
vn -0.0447 0.9988 0.0185
vn -0.2525 0.9619 0.1046
vn -0.9213 0.0752 0.3816
vn -0.7575 0.5725 0.3138
vn -0.8096 0.5869 -0.0000
vn -0.9967 0.0808 -0.0000
vn -0.0047 -1.0000 -0.0047
vn -0.0097 -0.9999 -0.0040
vn -0.0628 -0.9960 -0.0629
vn -0.0909 -0.9951 -0.0376
vn -0.0217 0.9995 -0.0217
vn -0.1766 0.9683 -0.1766
vn -0.0447 0.9988 -0.0185
vn -0.2525 0.9619 -0.1046
vn -0.9213 0.0752 -0.3816
vn -0.7575 0.5725 -0.3138
vn -0.5725 0.5869 -0.5725
vn -0.7048 0.0808 -0.7048
vn -0.0040 -0.9999 -0.0097
vn -0.0376 -0.9952 -0.0909
vn -0.0185 0.9988 -0.0447
vn -0.1046 0.9619 -0.2525
vn -0.3816 0.0752 -0.9213
vn -0.3138 0.5725 -0.7575
vn -0.5029 -0.7030 -0.5029
vn -0.3804 -0.1084 -0.9184
vn -0.2759 -0.6930 -0.6661
vn -0.0000 -0.7030 -0.7112
vn -0.7112 -0.7030 -0.0000
vn -0.9184 -0.1084 -0.3804
vn -0.6661 -0.6930 -0.2759
vn -0.5029 -0.7030 0.5029
vn -0.9184 -0.1084 0.3804
vn -0.6661 -0.6930 0.2759
vn -0.0000 -0.7030 0.7112
vn -0.3804 -0.1084 0.9184
vn -0.2759 -0.6930 0.6661
vn 0.5029 -0.7030 0.5029
vn 0.3804 -0.1084 0.9184
vn 0.2759 -0.6930 0.6661
vn 0.7112 -0.7030 -0.0000
vn 0.9184 -0.1084 0.3804
vn 0.6661 -0.6930 0.2759
vn 0.5029 -0.7030 -0.5029
vn 0.9184 -0.1084 -0.3804
vn 0.6661 -0.6930 -0.2759
vn 0.3804 -0.1084 -0.9184
vn 0.2759 -0.6930 -0.6661
vn -0.7071 -0.0000 -0.7071
vn -0.7023 -0.1167 -0.7023
vn -0.3827 -0.0000 -0.9239
vn -0.0000 -0.0000 -1.0000
vn -0.0000 -0.1167 -0.9932
vn -0.9932 -0.1167 -0.0000
vn -0.9239 -0.0000 -0.3827
vn -1.0000 -0.0000 -0.0000
vn -0.7071 -0.0000 0.7071
vn -0.7023 -0.1167 0.7023
vn -0.9239 -0.0000 0.3827
vn -0.0000 -0.1167 0.9932
vn -0.3827 -0.0000 0.9239
vn -0.0000 -0.0000 1.0000
vn 0.7071 -0.0000 0.7071
vn 0.7023 -0.1167 0.7023
vn 0.3827 -0.0000 0.9239
vn 0.9932 -0.1167 -0.0000
vn 0.9239 -0.0000 0.3827
vn 1.0000 -0.0000 -0.0000
vn 0.7071 -0.0000 -0.7071
vn 0.7023 -0.1167 -0.7023
vn 0.9239 -0.0000 -0.3827
vn 0.3827 -0.0000 -0.9239
s 1
f 36//1 35//2 1//3
f 3//4 107//5 36//1
f 5//6 107//5 37//7
f 39//8 38//9 2//10
f 6//11 108//12 39//8
f 4//13 108//12 40//14
f 41//15 106//16 27//17
f 41//15 40//14 109//18
f 40//14 92//19 109//18
f 106//16 92//19 28//20
f 35//2 43//21 1//3
f 5//6 110//22 35//2
f 7//23 110//22 44//24
f 45//25 39//8 2//10
f 8//26 111//27 45//25
f 6//11 111//27 46//28
f 92//19 105//29 28//20
f 92//19 46//28 112//30
f 46//28 93//31 112//30
f 105//29 93//31 29//32
f 43//21 48//33 1//3
f 7//23 113//34 43//21
f 9//35 113//34 49//36
f 50//37 45//25 2//10
f 10//38 114//39 50//37
f 8//26 114//39 51//40
f 93//31 104//41 29//32
f 93//31 51//40 115//42
f 51//40 94//43 115//42
f 104//41 94//43 30//44
f 48//33 53//45 1//3
f 9//35 116//46 48//33
f 11//47 116//46 54//48
f 55//49 50//37 2//10
f 12//50 117//51 55//49
f 10//38 117//51 56//52
f 94//43 103//53 30//44
f 94//43 56//52 118//54
f 56//52 95//55 118//54
f 103//53 95//55 31//56
f 53//45 58//57 1//3
f 11//47 119//58 53//45
f 13//59 119//58 59//60
f 60//61 55//49 2//10
f 14//62 120//63 60//61
f 12//50 120//63 61//64
f 95//55 102//65 31//56
f 95//55 61//64 121//66
f 61//64 96//67 121//66
f 102//65 96//67 32//68
f 58//57 63//69 1//3
f 13//59 122//70 58//57
f 15//71 122//70 64//72
f 65//73 60//61 2//10
f 16//74 123//75 65//73
f 14//62 123//75 66//76
f 96//67 101//77 32//68
f 96//67 66//76 124//78
f 66//76 97//79 124//78
f 101//77 97//79 33//80
f 63//69 68//81 1//3
f 15//71 125//82 63//69
f 17//83 125//82 69//84
f 70//85 65//73 2//10
f 18//86 126//87 70//85
f 16//74 126//87 71//88
f 97//79 100//89 33//80
f 97//79 71//88 127//90
f 71//88 98//91 127//90
f 100//89 98//91 34//92
f 68//81 36//1 1//3
f 17//83 128//93 68//81
f 3//4 128//93 73//94
f 38//9 70//85 2//10
f 4//13 129//95 38//9
f 18//86 129//95 74//96
f 98//91 99//97 34//92
f 98//91 74//96 130//98
f 74//96 41//15 130//98
f 99//97 41//15 27//17
f 72//99 73//94 17//83
f 72//99 83//100 131//101
f 83//100 75//102 131//101
f 73//94 75//102 3//4
f 67//103 69//84 15//71
f 67//103 84//104 132//105
f 84//104 72//99 132//105
f 69//84 72//99 17//83
f 62//106 64//72 13//59
f 62//106 85//107 133//108
f 85//107 67//103 133//108
f 64//72 67//103 15//71
f 57//109 59//60 11//47
f 57//109 86//110 134//111
f 86//110 62//106 134//111
f 59//60 62//106 13//59
f 52//112 54//48 9//35
f 52//112 87//113 135//114
f 87//113 57//109 135//114
f 54//48 57//109 11//47
f 47//115 49//36 7//23
f 47//115 88//116 136//117
f 88//116 52//112 136//117
f 49//36 52//112 9//35
f 42//118 44//24 5//6
f 42//118 89//119 137//120
f 89//119 47//115 137//120
f 44//24 47//115 7//23
f 75//102 37//7 3//4
f 75//102 90//121 138//122
f 90//121 42//118 138//122
f 37//7 42//118 5//6
f 82//123 83//100 26//124
f 82//123 99//97 139//125
f 139//125 27//17 91//126
f 139//125 19//127 83//100
f 25//128 140//129 84//104
f 33//80 140//129 81//130
f 100//89 82//123 140//129
f 84//104 82//123 26//124
f 80//131 85//107 24//132
f 32//68 141//133 80//131
f 141//133 33//80 81//130
f 141//133 25//128 85//107
f 23//134 142//135 86//110
f 31//56 142//135 79//136
f 102//65 80//131 142//135
f 86//110 80//131 24//132
f 78//137 87//113 22//138
f 30//44 143//139 78//137
f 143//139 31//56 79//136
f 143//139 23//134 87//113
f 21//140 144//141 88//116
f 29//32 144//141 77//142
f 104//41 78//137 144//141
f 88//116 78//137 22//138
f 76//143 89//119 20//144
f 28//20 145//145 76//143
f 145//145 29//32 77//142
f 145//145 21//140 89//119
f 91//126 90//121 19//127
f 27//17 146//146 91//126
f 146//146 28//20 76//143
f 90//121 76//143 20//144
f 36//1 107//5 35//2
f 3//4 37//7 107//5
f 5//6 35//2 107//5
f 39//8 108//12 38//9
f 6//11 40//14 108//12
f 4//13 38//9 108//12
f 41//15 109//18 106//16
f 41//15 4//13 40//14
f 40//14 6//11 92//19
f 106//16 109//18 92//19
f 35//2 110//22 43//21
f 5//6 44//24 110//22
f 7//23 43//21 110//22
f 45//25 111//27 39//8
f 8//26 46//28 111//27
f 6//11 39//8 111//27
f 92//19 112//30 105//29
f 92//19 6//11 46//28
f 46//28 8//26 93//31
f 105//29 112//30 93//31
f 43//21 113//34 48//33
f 7//23 49//36 113//34
f 9//35 48//33 113//34
f 50//37 114//39 45//25
f 10//38 51//40 114//39
f 8//26 45//25 114//39
f 93//31 115//42 104//41
f 93//31 8//26 51//40
f 51//40 10//38 94//43
f 104//41 115//42 94//43
f 48//33 116//46 53//45
f 9//35 54//48 116//46
f 11//47 53//45 116//46
f 55//49 117//51 50//37
f 12//50 56//52 117//51
f 10//38 50//37 117//51
f 94//43 118//54 103//53
f 94//43 10//38 56//52
f 56//52 12//50 95//55
f 103//53 118//54 95//55
f 53//45 119//58 58//57
f 11//47 59//60 119//58
f 13//59 58//57 119//58
f 60//61 120//63 55//49
f 14//62 61//64 120//63
f 12//50 55//49 120//63
f 95//55 121//66 102//65
f 95//55 12//50 61//64
f 61//64 14//62 96//67
f 102//65 121//66 96//67
f 58//57 122//70 63//69
f 13//59 64//72 122//70
f 15//71 63//69 122//70
f 65//73 123//75 60//61
f 16//74 66//76 123//75
f 14//62 60//61 123//75
f 96//67 124//78 101//77
f 96//67 14//62 66//76
f 66//76 16//74 97//79
f 101//77 124//78 97//79
f 63//69 125//82 68//81
f 15//71 69//84 125//82
f 17//83 68//81 125//82
f 70//85 126//87 65//73
f 18//86 71//88 126//87
f 16//74 65//73 126//87
f 97//79 127//90 100//89
f 97//79 16//74 71//88
f 71//88 18//86 98//91
f 100//89 127//90 98//91
f 68//81 128//93 36//1
f 17//83 73//94 128//93
f 3//4 36//1 128//93
f 38//9 129//95 70//85
f 4//13 74//96 129//95
f 18//86 70//85 129//95
f 98//91 130//98 99//97
f 98//91 18//86 74//96
f 74//96 4//13 41//15
f 99//97 130//98 41//15
f 72//99 131//101 73//94
f 72//99 26//124 83//100
f 83//100 19//127 75//102
f 73//94 131//101 75//102
f 67//103 132//105 69//84
f 67//103 25//128 84//104
f 84//104 26//124 72//99
f 69//84 132//105 72//99
f 62//106 133//108 64//72
f 62//106 24//132 85//107
f 85//107 25//128 67//103
f 64//72 133//108 67//103
f 57//109 134//111 59//60
f 57//109 23//134 86//110
f 86//110 24//132 62//106
f 59//60 134//111 62//106
f 52//112 135//114 54//48
f 52//112 22//138 87//113
f 87//113 23//134 57//109
f 54//48 135//114 57//109
f 47//115 136//117 49//36
f 47//115 21//140 88//116
f 88//116 22//138 52//112
f 49//36 136//117 52//112
f 42//118 137//120 44//24
f 42//118 20//144 89//119
f 89//119 21//140 47//115
f 44//24 137//120 47//115
f 75//102 138//122 37//7
f 75//102 19//127 90//121
f 90//121 20//144 42//118
f 37//7 138//122 42//118
f 82//123 139//125 83//100
f 82//123 34//92 99//97
f 139//125 99//97 27//17
f 139//125 91//126 19//127
f 25//128 81//130 140//129
f 33//80 100//89 140//129
f 100//89 34//92 82//123
f 84//104 140//129 82//123
f 80//131 141//133 85//107
f 32//68 101//77 141//133
f 141//133 101//77 33//80
f 141//133 81//130 25//128
f 23//134 79//136 142//135
f 31//56 102//65 142//135
f 102//65 32//68 80//131
f 86//110 142//135 80//131
f 78//137 143//139 87//113
f 30//44 103//53 143//139
f 143//139 103//53 31//56
f 143//139 79//136 23//134
f 21//140 77//142 144//141
f 29//32 104//41 144//141
f 104//41 30//44 78//137
f 88//116 144//141 78//137
f 76//143 145//145 89//119
f 28//20 105//29 145//145
f 145//145 105//29 29//32
f 145//145 77//142 21//140
f 91//126 146//146 90//121
f 27//17 106//16 146//146
f 146//146 106//16 28//20
f 90//121 146//146 76//143
